<svg xmlns="http://www.w3.org/2000/svg" viewBox="0 0 880 340" role="img" aria-label="nominal ZAR/litre; full-year monthly averages"><rect width="880" height="340" fill="white"/><g font-family="Lato,Arial,sans-serif" font-size="12" fill="#404040"><text x="15" y="20">nominal ZAR/litre; full-year monthly averages</text><line x1="75" y1="260.0" x2="820" y2="260.0" stroke="#dedede"/><text x="65" y="264.0" text-anchor="end">0.0</text><line x1="75" y1="207.5" x2="820" y2="207.5" stroke="#dedede"/><text x="65" y="211.5" text-anchor="end">6.5</text><line x1="75" y1="155.0" x2="820" y2="155.0" stroke="#dedede"/><text x="65" y="159.0" text-anchor="end">13.0</text><line x1="75" y1="102.5" x2="820" y2="102.5" stroke="#dedede"/><text x="65" y="106.5" text-anchor="end">19.4</text><line x1="75" y1="50.0" x2="820" y2="50.0" stroke="#dedede"/><text x="65" y="54.0" text-anchor="end">25.9</text><text x="75.0" y="280" text-anchor="middle">2012</text><text x="189.6" y="280" text-anchor="middle">2014</text><text x="304.2" y="280" text-anchor="middle">2016</text><text x="418.8" y="280" text-anchor="middle">2018</text><text x="533.5" y="280" text-anchor="middle">2020</text><text x="648.1" y="280" text-anchor="middle">2022</text><text x="762.7" y="280" text-anchor="middle">2024</text><text x="820.0" y="280" text-anchor="middle">2025</text><circle cx="75.0" cy="166.3" r="3" fill="#0A2373"><title>Petrol 95 inland retail 2012: 11.563</title></circle><line x1="75.0" y1="166.3" x2="132.3" y2="155.3" stroke="#0A2373" stroke-width="2.5"/><circle cx="132.3" cy="155.3" r="3" fill="#0A2373"><title>Petrol 95 inland retail 2013: 12.922</title></circle><line x1="132.3" y1="155.3" x2="189.6" y2="147.8" stroke="#0A2373" stroke-width="2.5"/><circle cx="189.6" cy="147.8" r="3" fill="#0A2373"><title>Petrol 95 inland retail 2014: 13.838</title></circle><line x1="189.6" y1="147.8" x2="246.9" y2="159.4" stroke="#0A2373" stroke-width="2.5"/><circle cx="246.9" cy="159.4" r="3" fill="#0A2373"><title>Petrol 95 inland retail 2015: 12.413</title></circle><line x1="246.9" y1="159.4" x2="304.2" y2="158.0" stroke="#0A2373" stroke-width="2.5"/><circle cx="304.2" cy="158.0" r="3" fill="#0A2373"><title>Petrol 95 inland retail 2016: 12.587</title></circle><line x1="304.2" y1="158.0" x2="361.5" y2="149.6" stroke="#0A2373" stroke-width="2.5"/><circle cx="361.5" cy="149.6" r="3" fill="#0A2373"><title>Petrol 95 inland retail 2017: 13.623</title></circle><line x1="361.5" y1="149.6" x2="418.8" y2="135.0" stroke="#0A2373" stroke-width="2.5"/><circle cx="418.8" cy="135.0" r="3" fill="#0A2373"><title>Petrol 95 inland retail 2018: 15.422</title></circle><line x1="418.8" y1="135.0" x2="476.2" y2="132.5" stroke="#0A2373" stroke-width="2.5"/><circle cx="476.2" cy="132.5" r="3" fill="#0A2373"><title>Petrol 95 inland retail 2019: 15.735</title></circle><line x1="476.2" y1="132.5" x2="533.5" y2="140.5" stroke="#0A2373" stroke-width="2.5"/><circle cx="533.5" cy="140.5" r="3" fill="#0A2373"><title>Petrol 95 inland retail 2020: 14.749</title></circle><line x1="533.5" y1="140.5" x2="590.8" y2="117.7" stroke="#0A2373" stroke-width="2.5"/><circle cx="590.8" cy="117.7" r="3" fill="#0A2373"><title>Petrol 95 inland retail 2021: 17.560</title></circle><line x1="590.8" y1="117.7" x2="648.1" y2="75.3" stroke="#0A2373" stroke-width="2.5"/><circle cx="648.1" cy="75.3" r="3" fill="#0A2373"><title>Petrol 95 inland retail 2022: 22.796</title></circle><line x1="648.1" y1="75.3" x2="705.4" y2="72.5" stroke="#0A2373" stroke-width="2.5"/><circle cx="705.4" cy="72.5" r="3" fill="#0A2373"><title>Petrol 95 inland retail 2023: 23.136</title></circle><line x1="705.4" y1="72.5" x2="762.7" y2="72.6" stroke="#0A2373" stroke-width="2.5"/><circle cx="762.7" cy="72.6" r="3" fill="#0A2373"><title>Petrol 95 inland retail 2024: 23.118</title></circle><line x1="762.7" y1="72.6" x2="820.0" y2="84.5" stroke="#0A2373" stroke-width="2.5"/><circle cx="820.0" cy="84.5" r="3" fill="#0A2373"><title>Petrol 95 inland retail 2025: 21.657</title></circle><line x1="75" y1="304" x2="93" y2="304" stroke="#0A2373" stroke-width="3"/><text x="101" y="308">Petrol 95 inland retail</text><circle cx="75.0" cy="172.9" r="3" fill="#546CA2"><title>Diesel 0.05% inland wholesale 2012: 10.750</title></circle><line x1="75.0" y1="172.9" x2="132.3" y2="162.8" stroke="#546CA2" stroke-width="2.5"/><circle cx="132.3" cy="162.8" r="3" fill="#546CA2"><title>Diesel 0.05% inland wholesale 2013: 11.990</title></circle><line x1="132.3" y1="162.8" x2="189.6" y2="157.1" stroke="#546CA2" stroke-width="2.5"/><circle cx="189.6" cy="157.1" r="3" fill="#546CA2"><title>Diesel 0.05% inland wholesale 2014: 12.701</title></circle><line x1="189.6" y1="157.1" x2="246.9" y2="172.7" stroke="#546CA2" stroke-width="2.5"/><circle cx="246.9" cy="172.7" r="3" fill="#546CA2"><title>Diesel 0.05% inland wholesale 2015: 10.774</title></circle><line x1="246.9" y1="172.7" x2="304.2" y2="173.8" stroke="#546CA2" stroke-width="2.5"/><circle cx="304.2" cy="173.8" r="3" fill="#546CA2"><title>Diesel 0.05% inland wholesale 2016: 10.640</title></circle><line x1="304.2" y1="173.8" x2="361.5" y2="164.8" stroke="#546CA2" stroke-width="2.5"/><circle cx="361.5" cy="164.8" r="3" fill="#546CA2"><title>Diesel 0.05% inland wholesale 2017: 11.742</title></circle><line x1="361.5" y1="164.8" x2="418.8" y2="147.0" stroke="#546CA2" stroke-width="2.5"/><circle cx="418.8" cy="147.0" r="3" fill="#546CA2"><title>Diesel 0.05% inland wholesale 2018: 13.949</title></circle><line x1="418.8" y1="147.0" x2="476.2" y2="143.3" stroke="#546CA2" stroke-width="2.5"/><circle cx="476.2" cy="143.3" r="3" fill="#546CA2"><title>Diesel 0.05% inland wholesale 2019: 14.396</title></circle><line x1="476.2" y1="143.3" x2="533.5" y2="155.2" stroke="#546CA2" stroke-width="2.5"/><circle cx="533.5" cy="155.2" r="3" fill="#546CA2"><title>Diesel 0.05% inland wholesale 2020: 12.933</title></circle><line x1="533.5" y1="155.2" x2="590.8" y2="137.3" stroke="#546CA2" stroke-width="2.5"/><circle cx="590.8" cy="137.3" r="3" fill="#546CA2"><title>Diesel 0.05% inland wholesale 2021: 15.140</title></circle><line x1="590.8" y1="137.3" x2="648.1" y2="78.8" stroke="#546CA2" stroke-width="2.5"/><circle cx="648.1" cy="78.8" r="3" fill="#546CA2"><title>Diesel 0.05% inland wholesale 2022: 22.353</title></circle><line x1="648.1" y1="78.8" x2="705.4" y2="85.6" stroke="#546CA2" stroke-width="2.5"/><circle cx="705.4" cy="85.6" r="3" fill="#546CA2"><title>Diesel 0.05% inland wholesale 2023: 21.524</title></circle><line x1="705.4" y1="85.6" x2="762.7" y2="93.2" stroke="#546CA2" stroke-width="2.5"/><circle cx="762.7" cy="93.2" r="3" fill="#546CA2"><title>Diesel 0.05% inland wholesale 2024: 20.578</title></circle><line x1="762.7" y1="93.2" x2="820.0" y2="102.2" stroke="#546CA2" stroke-width="2.5"/><circle cx="820.0" cy="102.2" r="3" fill="#546CA2"><title>Diesel 0.05% inland wholesale 2025: 19.467</title></circle><line x1="465" y1="304" x2="483" y2="304" stroke="#546CA2" stroke-width="3"/><text x="491" y="308">Diesel 0.05% inland wholesale</text></g></svg>